<svg xmlns="http://www.w3.org/2000/svg" viewBox="0 0 64 64" fill="none">
  <defs>
    <linearGradient id="cf-ico" x1="0" y1="0" x2="1" y2="1">
      <stop offset="0" stop-color="#E8C766"/>
      <stop offset="0.5" stop-color="#D4AF37"/>
      <stop offset="1" stop-color="#B8932E"/>
    </linearGradient>
  </defs>
  <rect x="2" y="2" width="60" height="60" rx="14" fill="#0A0A0A"/>
  <path d="M45 22c-3-3-7-4-11-4-9 0-15 6-15 14s6 14 15 14c4 0 8-1 11-4v6c-3 2-7 3-11 3-13 0-21-8-21-19s8-19 21-19c4 0 8 1 11 3v6z" fill="url(#cf-ico)"/>
  <rect x="30" y="30" width="14" height="5" fill="url(#cf-ico)" opacity="0.9"/>
  <rect x="30" y="35" width="9" height="9" fill="url(#cf-ico)" opacity="0.6"/>
</svg>
