<svg xmlns="http://www.w3.org/2000/svg" viewBox="0 0 64 64" fill="none">
  <defs>
    <linearGradient id="cf-mono" x1="0" y1="0" x2="1" y2="1">
      <stop offset="0" stop-color="#E8C766"/>
      <stop offset="0.5" stop-color="#D4AF37"/>
      <stop offset="1" stop-color="#B8932E"/>
    </linearGradient>
  </defs>
  <rect x="2" y="2" width="60" height="60" rx="14" fill="#0A0A0A"/>
  <path d="M40 18c-2-1-5-2-8-2-7 0-12 5-12 14s5 14 12 14c3 0 6-1 8-2v-5c-2 1-4 2-7 2-4 0-7-3-7-9s3-9 7-9c3 0 5 1 7 2v-5z" fill="url(#cf-mono)"/>
  <path d="M24 30h14v4h-10v8h-4V30z" fill="url(#cf-mono)" opacity="0.85"/>
</svg>
